<mxfile host="app.diagrams.net" modified="2023-04-20T08:50:54.103Z" agent="Mozilla/5.0 (Windows NT 10.0; Win64; x64; rv:109.0) Gecko/20100101 Firefox/112.0" etag="1uWP9CE5xpjTAwnrnlc2" version="21.2.1" type="device">
  <diagram name="Page-1" id="5Wjml8LvbKuCekCIlpVB">
    <mxGraphModel dx="1434" dy="821" grid="1" gridSize="10" guides="1" tooltips="1" connect="1" arrows="1" fold="1" page="1" pageScale="1" pageWidth="850" pageHeight="1100" math="0" shadow="0">
      <root>
        <mxCell id="0" />
        <mxCell id="1" parent="0" />
        <mxCell id="LbNuNjGXB0X3-I9Suqgu-1" value="Livello 0: utente non registrato&#xa;" style="swimlane;startSize=0;" vertex="1" parent="1">
          <mxGeometry x="80" y="520" width="200" height="200" as="geometry">
            <mxRectangle x="320" y="330" width="50" height="40" as="alternateBounds" />
          </mxGeometry>
        </mxCell>
        <mxCell id="LbNuNjGXB0X3-I9Suqgu-8" value="registrati" style="rounded=0;whiteSpace=wrap;html=1;" vertex="1" parent="LbNuNjGXB0X3-I9Suqgu-1">
          <mxGeometry x="130" y="20" width="60" height="60" as="geometry" />
        </mxCell>
        <mxCell id="LbNuNjGXB0X3-I9Suqgu-9" value="login" style="rounded=0;whiteSpace=wrap;html=1;" vertex="1" parent="LbNuNjGXB0X3-I9Suqgu-1">
          <mxGeometry x="10" y="120" width="60" height="60" as="geometry" />
        </mxCell>
        <mxCell id="LbNuNjGXB0X3-I9Suqgu-10" value="home" style="rounded=0;whiteSpace=wrap;html=1;" vertex="1" parent="LbNuNjGXB0X3-I9Suqgu-1">
          <mxGeometry x="10" y="20" width="60" height="60" as="geometry" />
        </mxCell>
        <mxCell id="LbNuNjGXB0X3-I9Suqgu-11" value="" style="endArrow=classic;html=1;rounded=0;" edge="1" parent="LbNuNjGXB0X3-I9Suqgu-1" source="LbNuNjGXB0X3-I9Suqgu-10" target="LbNuNjGXB0X3-I9Suqgu-9">
          <mxGeometry width="50" height="50" relative="1" as="geometry">
            <mxPoint x="320" y="290" as="sourcePoint" />
            <mxPoint x="370" y="240" as="targetPoint" />
          </mxGeometry>
        </mxCell>
        <mxCell id="LbNuNjGXB0X3-I9Suqgu-12" value="" style="endArrow=classic;html=1;rounded=0;" edge="1" parent="LbNuNjGXB0X3-I9Suqgu-1" source="LbNuNjGXB0X3-I9Suqgu-9" target="LbNuNjGXB0X3-I9Suqgu-8">
          <mxGeometry width="50" height="50" relative="1" as="geometry">
            <mxPoint x="320" y="290" as="sourcePoint" />
            <mxPoint x="370" y="240" as="targetPoint" />
          </mxGeometry>
        </mxCell>
        <mxCell id="LbNuNjGXB0X3-I9Suqgu-16" value="offerte" style="rounded=0;whiteSpace=wrap;html=1;" vertex="1" parent="LbNuNjGXB0X3-I9Suqgu-1">
          <mxGeometry x="130" y="120" width="60" height="60" as="geometry" />
        </mxCell>
        <mxCell id="LbNuNjGXB0X3-I9Suqgu-17" value="" style="endArrow=classic;html=1;rounded=0;" edge="1" parent="LbNuNjGXB0X3-I9Suqgu-1" source="LbNuNjGXB0X3-I9Suqgu-10" target="LbNuNjGXB0X3-I9Suqgu-16">
          <mxGeometry width="50" height="50" relative="1" as="geometry">
            <mxPoint x="320" y="290" as="sourcePoint" />
            <mxPoint x="370" y="240" as="targetPoint" />
          </mxGeometry>
        </mxCell>
        <mxCell id="LbNuNjGXB0X3-I9Suqgu-19" value="" style="endArrow=classic;html=1;rounded=0;" edge="1" parent="LbNuNjGXB0X3-I9Suqgu-1" source="LbNuNjGXB0X3-I9Suqgu-10" target="LbNuNjGXB0X3-I9Suqgu-8">
          <mxGeometry width="50" height="50" relative="1" as="geometry">
            <mxPoint x="320" y="290" as="sourcePoint" />
            <mxPoint x="370" y="240" as="targetPoint" />
          </mxGeometry>
        </mxCell>
        <mxCell id="LbNuNjGXB0X3-I9Suqgu-2" value="Livello 1: utente registrato&#xa;" style="swimlane;startSize=0;" vertex="1" parent="1">
          <mxGeometry x="325" y="520" width="200" height="200" as="geometry" />
        </mxCell>
        <mxCell id="LbNuNjGXB0X3-I9Suqgu-15" value="profilo" style="rounded=0;whiteSpace=wrap;html=1;" vertex="1" parent="LbNuNjGXB0X3-I9Suqgu-2">
          <mxGeometry x="70" y="20" width="60" height="60" as="geometry" />
        </mxCell>
        <mxCell id="LbNuNjGXB0X3-I9Suqgu-20" value="acquisire coupon" style="rounded=0;whiteSpace=wrap;html=1;" vertex="1" parent="LbNuNjGXB0X3-I9Suqgu-2">
          <mxGeometry x="10" y="120" width="60" height="60" as="geometry" />
        </mxCell>
        <mxCell id="LbNuNjGXB0X3-I9Suqgu-3" value="Livello 2: staff&#xa;" style="swimlane;startSize=0;" vertex="1" parent="1">
          <mxGeometry x="80" y="280" width="200" height="200" as="geometry" />
        </mxCell>
        <mxCell id="LbNuNjGXB0X3-I9Suqgu-22" value="Gestire coupon" style="rounded=0;whiteSpace=wrap;html=1;" vertex="1" parent="LbNuNjGXB0X3-I9Suqgu-3">
          <mxGeometry x="70" y="120" width="60" height="60" as="geometry" />
        </mxCell>
        <mxCell id="LbNuNjGXB0X3-I9Suqgu-24" value="Gestire username" style="rounded=0;whiteSpace=wrap;html=1;" vertex="1" parent="LbNuNjGXB0X3-I9Suqgu-3">
          <mxGeometry x="70" y="20" width="60" height="60" as="geometry" />
        </mxCell>
        <mxCell id="LbNuNjGXB0X3-I9Suqgu-4" value="Livello 3: admin&#xa;" style="swimlane;startSize=0;" vertex="1" parent="1">
          <mxGeometry x="560" y="80" width="200" height="200" as="geometry" />
        </mxCell>
        <mxCell id="LbNuNjGXB0X3-I9Suqgu-26" value="Gestire aziende" style="rounded=0;whiteSpace=wrap;html=1;" vertex="1" parent="LbNuNjGXB0X3-I9Suqgu-4">
          <mxGeometry x="30" y="20" width="60" height="60" as="geometry" />
        </mxCell>
        <mxCell id="LbNuNjGXB0X3-I9Suqgu-27" value="Gestire utenti registrati" style="rounded=0;whiteSpace=wrap;html=1;" vertex="1" parent="LbNuNjGXB0X3-I9Suqgu-4">
          <mxGeometry x="110" y="20" width="60" height="60" as="geometry" />
        </mxCell>
        <mxCell id="LbNuNjGXB0X3-I9Suqgu-28" value="Gestire staff" style="rounded=0;whiteSpace=wrap;html=1;" vertex="1" parent="LbNuNjGXB0X3-I9Suqgu-4">
          <mxGeometry x="30" y="100" width="60" height="60" as="geometry" />
        </mxCell>
        <mxCell id="LbNuNjGXB0X3-I9Suqgu-29" value="Gestire statistiche" style="rounded=0;whiteSpace=wrap;html=1;" vertex="1" parent="LbNuNjGXB0X3-I9Suqgu-4">
          <mxGeometry x="110" y="100" width="60" height="60" as="geometry" />
        </mxCell>
        <mxCell id="LbNuNjGXB0X3-I9Suqgu-14" value="" style="endArrow=classic;html=1;rounded=0;" edge="1" parent="1" source="LbNuNjGXB0X3-I9Suqgu-8" target="LbNuNjGXB0X3-I9Suqgu-15">
          <mxGeometry width="50" height="50" relative="1" as="geometry">
            <mxPoint x="400" y="810" as="sourcePoint" />
            <mxPoint x="380" y="640" as="targetPoint" />
          </mxGeometry>
        </mxCell>
        <mxCell id="LbNuNjGXB0X3-I9Suqgu-21" value="" style="endArrow=classic;html=1;rounded=0;" edge="1" parent="1" source="LbNuNjGXB0X3-I9Suqgu-16" target="LbNuNjGXB0X3-I9Suqgu-20">
          <mxGeometry width="50" height="50" relative="1" as="geometry">
            <mxPoint x="400" y="810" as="sourcePoint" />
            <mxPoint x="450" y="760" as="targetPoint" />
          </mxGeometry>
        </mxCell>
        <mxCell id="LbNuNjGXB0X3-I9Suqgu-23" value="" style="endArrow=classic;html=1;rounded=0;" edge="1" parent="1" source="LbNuNjGXB0X3-I9Suqgu-20" target="LbNuNjGXB0X3-I9Suqgu-22">
          <mxGeometry width="50" height="50" relative="1" as="geometry">
            <mxPoint x="400" y="450" as="sourcePoint" />
            <mxPoint x="450" y="400" as="targetPoint" />
          </mxGeometry>
        </mxCell>
        <mxCell id="LbNuNjGXB0X3-I9Suqgu-25" value="" style="endArrow=classic;html=1;rounded=0;" edge="1" parent="1" source="LbNuNjGXB0X3-I9Suqgu-15" target="LbNuNjGXB0X3-I9Suqgu-24">
          <mxGeometry width="50" height="50" relative="1" as="geometry">
            <mxPoint x="400" y="450" as="sourcePoint" />
            <mxPoint x="450" y="400" as="targetPoint" />
          </mxGeometry>
        </mxCell>
        <mxCell id="LbNuNjGXB0X3-I9Suqgu-30" value="" style="endArrow=classic;html=1;rounded=0;" edge="1" parent="1" source="LbNuNjGXB0X3-I9Suqgu-15" target="LbNuNjGXB0X3-I9Suqgu-26">
          <mxGeometry width="50" height="50" relative="1" as="geometry">
            <mxPoint x="400" y="450" as="sourcePoint" />
            <mxPoint x="450" y="400" as="targetPoint" />
          </mxGeometry>
        </mxCell>
        <mxCell id="LbNuNjGXB0X3-I9Suqgu-31" value="" style="endArrow=classic;html=1;rounded=0;" edge="1" parent="1" source="LbNuNjGXB0X3-I9Suqgu-15" target="LbNuNjGXB0X3-I9Suqgu-27">
          <mxGeometry width="50" height="50" relative="1" as="geometry">
            <mxPoint x="400" y="450" as="sourcePoint" />
            <mxPoint x="450" y="400" as="targetPoint" />
          </mxGeometry>
        </mxCell>
        <mxCell id="LbNuNjGXB0X3-I9Suqgu-32" value="" style="endArrow=classic;html=1;rounded=0;" edge="1" parent="1" source="LbNuNjGXB0X3-I9Suqgu-15" target="LbNuNjGXB0X3-I9Suqgu-28">
          <mxGeometry width="50" height="50" relative="1" as="geometry">
            <mxPoint x="400" y="450" as="sourcePoint" />
            <mxPoint x="450" y="400" as="targetPoint" />
          </mxGeometry>
        </mxCell>
        <mxCell id="LbNuNjGXB0X3-I9Suqgu-33" value="" style="endArrow=classic;html=1;rounded=0;" edge="1" parent="1" source="LbNuNjGXB0X3-I9Suqgu-15" target="LbNuNjGXB0X3-I9Suqgu-29">
          <mxGeometry width="50" height="50" relative="1" as="geometry">
            <mxPoint x="400" y="450" as="sourcePoint" />
            <mxPoint x="450" y="400" as="targetPoint" />
          </mxGeometry>
        </mxCell>
        <mxCell id="LbNuNjGXB0X3-I9Suqgu-34" value="" style="shape=flexArrow;endArrow=classic;html=1;rounded=0;fillColor=#d5e8d4;strokeColor=#82b366;" edge="1" parent="1">
          <mxGeometry width="50" height="50" relative="1" as="geometry">
            <mxPoint x="820" y="720" as="sourcePoint" />
            <mxPoint x="820" y="80" as="targetPoint" />
          </mxGeometry>
        </mxCell>
      </root>
    </mxGraphModel>
  </diagram>
</mxfile>
